<svg width="22" height="22" viewBox="0 0 22 22" fill="none" xmlns="http://www.w3.org/2000/svg">
<g clipPath="url(#clip0_13866_10634)">
<path d="M18.2674 4.69321L18.6682 5.93694L19.9765 5.93495L18.9162 6.70073L19.3237 7.9438L18.2667 7.17336L17.2105 7.94447L17.6173 6.7014L16.5577 5.93495L17.8659 5.93694L18.2667 4.69387L18.2674 4.69321ZM2.61736 5.78139L3.01887 4.53699L3.42037 5.78139L4.72792 5.77807L3.66965 6.54518L4.07514 7.78825L3.01953 7.01715L1.96325 7.78825L2.36941 6.54518L1.31048 5.77807L2.61803 5.78139H2.61736ZM0.0820312 10.3083L1.38958 10.3103L1.79109 9.06589L2.19259 10.3103L3.50014 10.3083L2.4412 11.0747L2.84803 12.3178L1.79109 11.5467L0.734809 12.3178L1.14097 11.0747L0.0820312 10.3083V10.3083ZM2.96967 16.0098L1.91273 16.7802L2.31889 15.5372L1.25996 14.7714L2.56751 14.7734L2.96901 13.5283L3.37051 14.7734L4.67806 14.7714L3.61913 15.5372L4.02462 16.7802L2.96967 16.0091V16.0098ZM7.16088 20.0049L6.1046 19.2345L5.04833 20.0056L5.45515 18.7625L4.39555 17.9954L5.7031 17.9987L6.1046 16.7556L6.50677 17.9987L7.81432 17.9954L6.75472 18.7625L7.16088 20.0056V20.0049ZM6.82119 3.34245L7.22735 4.58552L6.17041 3.81442L5.1148 4.58552L5.52162 3.34245L4.46269 2.57666L5.76891 2.57866L6.17041 1.33426L6.57258 2.57866L7.88013 2.57666L6.82119 3.34245ZM10.1668 1.31764L10.5684 0.0732422L10.9705 1.31631L12.2767 1.31498L11.2178 2.08143L11.6253 3.32384L10.5684 2.55473L9.51274 3.32384L9.91823 2.0821L8.8593 1.31565L10.1675 1.31764H10.1668ZM11.6904 21.2001L10.6335 20.429L9.57788 21.2001L9.98471 19.957L8.92511 19.1913L10.2327 19.1932L10.6335 17.9488L11.0357 19.1932L12.3426 19.1913L11.2836 19.957L11.6904 21.2001ZM14.5455 2.56935L14.9483 1.32562L15.3498 2.56869L16.6567 2.56736L15.5978 3.33314L16.0033 4.57621L14.949 3.80511L13.8921 4.57621L14.2982 3.33314L13.2393 2.56736L14.5455 2.56935V2.56935ZM16.0877 20.0228L15.0308 19.2517L13.9738 20.0228L14.3813 18.7791L13.3217 18.0133L14.6293 18.0167L15.0314 16.7716L15.4329 18.0167L16.7405 18.0133L15.6809 18.7791L16.087 20.0228H16.0877ZM19.3051 16.8042L18.2501 16.0317L17.1932 16.8042L17.6 15.5611L16.5404 14.794L17.8486 14.796L18.2501 13.5522L18.6516 14.7953L19.9585 14.794L18.8996 15.5611L19.3051 16.8042V16.8042ZM19.4772 11.5374L18.4203 12.3078L18.8278 11.0648L17.7682 10.2977L19.0757 10.301L19.4772 9.05724L19.8794 10.3003L21.187 10.2977L20.1274 11.0648L20.5348 12.3078L19.4772 11.5367V11.5374ZM9.74806 11.6145H7.70929V13.0191H10.1024V13.8879H6.6477V8.64178H10.0944V9.51725H7.70929V10.767H9.74806V11.6145V11.6145ZM14.6246 8.64178V12.0971C14.6246 12.6708 14.4485 13.1248 14.0955 13.4592C13.7432 13.7929 13.2612 13.9597 12.6497 13.9597C12.0481 13.9597 11.5708 13.7975 11.2165 13.4731C10.8628 13.1487 10.682 12.7034 10.6754 12.137V8.64178H11.737V12.1044C11.737 12.4474 11.8174 12.698 11.9789 12.8556C12.1411 13.0125 12.3645 13.0916 12.6503 13.0916C13.2466 13.0916 13.5497 12.7725 13.5597 12.133V8.64178H14.6246Z" fill="white" fill-opacity="0.5"/>
</g>
<defs>
<clipPath id="clip0_13866_10634">
<rect width="21.2718" height="21.2718" fill="white"/>
</clipPath>
</defs>
</svg>
